ffmpeg started on 2016-12-07 at 07:33:34
Report written to "Output/x264/results/ffmpeg/sintelslow3000k.log"
Command line:
Tools/ffmpeg/ffmpeg -benchmark -y -i Input/y4m/sintel.y4m -c:v libx264 -preset slow -b:v 3000k -an Output/x264/encoded/sintelslow3000k.mkv
ffmpeg version N-82227-gdb23fde Copyright (c) 2000-2016 the FFmpeg developers
  built with gcc 5.4.0 (Ubuntu 5.4.0-6ubuntu1~16.04.2) 20160609
  configuration: --prefix=/home/jaroslav/ffmpeg_build --pkg-config-flags=--static --extra-cflags=-I/home/jaroslav/ffmpeg_build/include --extra-ldflags=-L/home/jaroslav/ffmpeg_build/lib --bindir=/home/jaroslav/bin --enable-gpl --enable-libass --enable-libfdk-aac --enable-libfreetype --enable-libmp3lame --enable-libopus --enable-libtheora --enable-libvorbis --enable-libvpx --enable-libx264 --enable-libx265 --enable-nvenc --enable-libmfx --enable-libxvid --enable-libgsm --enable-libopencore-amrnb --enable-version3 --enable-nonfree
  libavutil      55. 35.100 / 55. 35.100
  libavcodec     57. 66.101 / 57. 66.101
  libavformat    57. 57.100 / 57. 57.100
  libavdevice    57.  2.100 / 57.  2.100
  libavfilter     6. 66.100 /  6. 66.100
  libswscale      4.  3.100 /  4.  3.100
  libswresample   2.  4.100 /  2.  4.100
  libpostproc    54.  2.100 / 54.  2.100
Input #0, yuv4mpegpipe, from 'Input/y4m/sintel.y4m':
  Duration: 00:00:20.83, start: 0.000000, bitrate: 2057307 kb/s
    Stream #0:0: Video: rawvideo (I420 / 0x30323449), yuv420p(progressive), 4096x1744, SAR 1:1 DAR 256:109, 24 fps, 24 tbr, 24 tbn, 24 tbc
[libx264 @ 0x3567120] using SAR=1/1
[libx264 @ 0x3567120] using cpu capabilities: MMX2 SSE2Fast SSSE3 SSE4.2 AVX FMA3 AVX2 LZCNT BMI2
[libx264 @ 0x3567120] profile High, level 5.1
[libx264 @ 0x3567120] 264 - core 148 - H.264/MPEG-4 AVC codec - Copyleft 2003-2016 - http://www.videolan.org/x264.html - options: cabac=1 ref=5 deblock=1:0:0 analyse=0x3:0x113 me=hex subme=8 psy=1 psy_rd=1.00:0.00 mixed_ref=1 me_range=16 chroma_me=1 trellis=2 8x8dct=1 cqm=0 deadzone=21,11 fast_pskip=1 chroma_qp_offset=-2 threads=6 lookahead_threads=1 sliced_threads=0 nr=0 decimate=1 interlaced=0 bluray_compat=0 constrained_intra=0 bframes=3 b_pyramid=2 b_adapt=1 b_bias=0 direct=3 weightb=1 open_gop=0 weightp=2 keyint=250 keyint_min=24 scenecut=40 intra_refresh=0 rc_lookahead=50 rc=abr mbtree=1 bitrate=3000 ratetol=1.0 qcomp=0.60 qpmin=0 qpmax=69 qpstep=4 ip_ratio=1.40 aq=1:1.00
Output #0, matroska, to 'Output/x264/encoded/sintelslow3000k.mkv':
  Metadata:
    encoder         : Lavf57.57.100
    Stream #0:0: Video: h264 (libx264) (H264 / 0x34363248), yuv420p, 4096x1744 [SAR 1:1 DAR 256:109], q=-1--1, 3000 kb/s, 24 fps, 1k tbn, 24 tbc
    Metadata:
      encoder         : Lavc57.66.101 libx264
    Side data:
      cpb: bitrate max/min/avg: 0/0/3000000 buffer size: 0 vbv_delay: -1
Stream mapping:
  Stream #0:0 -> #0:0 (rawvideo (native) -> h264 (libx264))
Press [q] to stop, [?] for help
frame=    5 fps=0.0 q=0.0 size=       0kB time=00:00:00.00 bitrate=N/A speed=   0x    frame=   14 fps= 13 q=0.0 size=       0kB time=00:00:00.00 bitrate=N/A speed=   0x    frame=   15 fps=6.9 q=0.0 size=       0kB time=00:00:00.00 bitrate=N/A speed=   0x    frame=   16 fps=3.3 q=0.0 size=       0kB time=00:00:00.00 bitrate=N/A speed=   0x    frame=   17 fps=2.1 q=0.0 size=       0kB time=00:00:00.00 bitrate=N/A speed=   0x    frame=   18 fps=1.7 q=0.0 size=       0kB time=00:00:00.00 bitrate=N/A speed=   0x    frame=   27 fps=2.5 q=0.0 size=       0kB time=00:00:00.00 bitrate=N/A speed=   0x    frame=   36 fps=3.1 q=0.0 size=       0kB time=00:00:00.00 bitrate=N/A speed=   0x    frame=   45 fps=3.7 q=0.0 size=       0kB time=00:00:00.00 bitrate=N/A speed=   0x    frame=   54 fps=4.3 q=0.0 size=       0kB time=00:00:00.00 bitrate=N/A speed=   0x    frame=   57 fps=3.7 q=0.0 size=       0kB time=00:00:00.00 bitrate=N/A speed=   0x    frame=   63 fps=3.9 q=36.0 size=       1kB time=00:00:00.00 bitrate=5872.0kbits/s speed=6.14e-05x    frame=   65 fps=3.8 q=39.0 size=       1kB time=00:00:00.08 bitrate=  69.9kbits/s speed=0.00496x    frame=   69 fps=3.9 q=53.0 size=       1kB time=00:00:00.25 bitrate=  23.4kbits/s speed=0.0143x    frame=   71 fps=3.9 q=53.0 size=       1kB time=00:00:00.33 bitrate=  17.6kbits/s speed=0.0185x    frame=   76 fps=4.1 q=53.0 size=       1kB time=00:00:00.54 bitrate=  10.8kbits/s speed=0.029x    frame=   82 fps=4.2 q=52.0 size=       1kB time=00:00:00.79 bitrate=   7.4kbits/s speed=0.0409x    frame=   87 fps=4.4 q=52.0 size=       1kB time=00:00:01.00 bitrate=   5.9kbits/s speed=0.0502x    frame=   91 fps=4.4 q=52.0 size=       1kB time=00:00:01.16 bitrate=   5.0kbits/s speed=0.0571x    frame=   96 fps=4.6 q=51.0 size=       1kB time=00:00:01.37 bitrate=   4.3kbits/s speed=0.0652x    frame=  100 fps=4.6 q=51.0 size=       1kB time=00:00:01.54 bitrate=   3.8kbits/s speed=0.0714x    frame=  105 fps=4.7 q=51.0 size=       1kB time=00:00:01.75 bitrate=   3.4kbits/s speed=0.079x    frame=  109 fps=4.8 q=50.0 size=       1kB time=00:00:01.91 bitrate=   3.1kbits/s speed=0.0845x    frame=  115 fps=4.9 q=50.0 size=       1kB time=00:00:02.16 bitrate=   2.7kbits/s speed=0.0927x    frame=  118 fps=4.9 q=50.0 size=       1kB time=00:00:02.29 bitrate=   2.6kbits/s speed=0.0956x    frame=  121 fps=4.9 q=50.0 size=       1kB time=00:00:02.41 bitrate=   2.4kbits/s speed=0.0988x    frame=  125 fps=5.0 q=50.0 size=       1kB time=00:00:02.58 bitrate=   2.3kbits/s speed=0.103x    frame=  127 fps=5.0 q=50.0 size=       1kB time=00:00:02.66 bitrate=   2.2kbits/s speed=0.104x    frame=  133 fps=5.0 q=50.0 size=       1kB time=00:00:02.91 bitrate=   2.0kbits/s speed=0.11x    frame=  136 fps=5.0 q=50.0 size=       1kB time=00:00:03.04 bitrate=   1.9kbits/s speed=0.113x    frame=  139 fps=5.0 q=50.0 size=       1kB time=00:00:03.16 bitrate=   1.9kbits/s speed=0.115x    frame=  142 fps=5.0 q=50.0 size=       1kB time=00:00:03.29 bitrate=   1.8kbits/s speed=0.117x    frame=  145 fps=5.1 q=50.0 size=       1kB time=00:00:03.41 bitrate=   1.7kbits/s speed=0.119x    frame=  148 fps=5.1 q=50.0 size=       1kB time=00:00:03.54 bitrate=   1.7kbits/s speed=0.121x    frame=  151 fps=5.1 q=50.0 size=       1kB time=00:00:03.66 bitrate=   1.6kbits/s speed=0.123x    frame=  156 fps=5.1 q=50.0 size=       1kB time=00:00:03.87 bitrate=   1.5kbits/s speed=0.128x    frame=  163 fps=5.2 q=50.0 size=    1734kB time=00:00:04.16 bitrate=3408.6kbits/s speed=0.133x    frame=  170 fps=5.3 q=50.0 size=    1734kB time=00:00:04.45 bitrate=3186.2kbits/s speed=0.14x    frame=  174 fps=5.4 q=50.0 size=    1734kB time=00:00:04.62 bitrate=3071.1kbits/s speed=0.143x    frame=  181 fps=5.5 q=49.0 size=    1734kB time=00:00:04.91 bitrate=2888.8kbits/s speed=0.148x    frame=  186 fps=5.5 q=49.0 size=    1734kB time=00:00:05.12 bitrate=2771.6kbits/s speed=0.152x    frame=  189 fps=5.5 q=50.0 size=    1734kB time=00:00:05.25 bitrate=2705.6kbits/s speed=0.154x    frame=  193 fps=5.6 q=50.0 size=    1734kB time=00:00:05.41 bitrate=2622.2kbits/s speed=0.156x    frame=  198 fps=5.6 q=50.0 size=    1734kB time=00:00:05.62 bitrate=2525.3kbits/s speed=0.159x    frame=  203 fps=5.6 q=50.0 size=    1734kB time=00:00:05.83 bitrate=2435.2kbits/s speed=0.162x    frame=  209 fps=5.7 q=50.0 size=    1734kB time=00:00:06.08 bitrate=2335.2kbits/s speed=0.166x    frame=  212 fps=5.7 q=47.0 size=    1734kB time=00:00:06.20 bitrate=2288.2kbits/s speed=0.167x    frame=  221 fps=5.9 q=49.0 size=    2575kB time=00:00:06.58 bitrate=3203.6kbits/s speed=0.175x    frame=  224 fps=5.9 q=49.0 size=    2575kB time=00:00:06.70 bitrate=3143.9kbits/s speed=0.175x    frame=  228 fps=5.9 q=49.0 size=    2575kB time=00:00:06.87 bitrate=3067.5kbits/s speed=0.177x    frame=  232 fps=5.9 q=49.0 size=    2575kB time=00:00:07.04 bitrate=2994.8kbits/s speed=0.179x    frame=  237 fps=5.9 q=49.0 size=    2575kB time=00:00:07.25 bitrate=2908.9kbits/s speed=0.181x    frame=  240 fps=5.9 q=49.0 size=    2575kB time=00:00:07.37 bitrate=2859.6kbits/s speed=0.182x    frame=  247 fps=6.0 q=49.0 size=    2917kB time=00:00:07.66 bitrate=3116.7kbits/s speed=0.187x    frame=  253 fps=6.1 q=49.0 size=    2917kB time=00:00:07.91 bitrate=3018.3kbits/s speed=0.19x    frame=  257 fps=6.1 q=49.0 size=    2917kB time=00:00:08.08 bitrate=2956.3kbits/s speed=0.192x    frame=  260 fps=6.1 q=49.0 size=    2917kB time=00:00:08.20 bitrate=2911.3kbits/s speed=0.193x    frame=  265 fps=6.1 q=49.0 size=    2917kB time=00:00:08.41 bitrate=2839.0kbits/s speed=0.195x    frame=  271 fps=6.2 q=48.0 size=    2917kB time=00:00:08.66 bitrate=2757.1kbits/s speed=0.198x    frame=  277 fps=6.3 q=48.0 size=    2917kB time=00:00:08.91 bitrate=2679.8kbits/s speed=0.201x    frame=  282 fps=6.3 q=48.0 size=    2917kB time=00:00:09.12 bitrate=2618.7kbits/s speed=0.203x    frame=  289 fps=6.3 q=48.0 size=    2917kB time=00:00:09.41 bitrate=2537.5kbits/s speed=0.207x    frame=  294 fps=6.4 q=48.0 size=    2917kB time=00:00:09.62 bitrate=2482.7kbits/s speed=0.209x    frame=  301 fps=6.4 q=47.0 size=    2917kB time=00:00:09.91 bitrate=2409.6kbits/s speed=0.212x    frame=  308 fps=6.5 q=47.0 size=    2917kB time=00:00:10.20 bitrate=2340.9kbits/s speed=0.216x    frame=  314 fps=6.6 q=47.0 size=    2917kB time=00:00:10.45 bitrate=2285.0kbits/s speed=0.218x    frame=  318 fps=6.5 q=47.0 size=    2917kB time=00:00:10.62 bitrate=2249.1kbits/s speed=0.216x    frame=  324 fps=6.5 q=47.0 size=    2917kB time=00:00:10.87 bitrate=2197.4kbits/s speed=0.219x    frame=  333 fps=6.6 q=47.0 size=    3779kB time=00:00:11.25 bitrate=2751.9kbits/s speed=0.224x    frame=  340 fps=6.7 q=46.0 size=    3779kB time=00:00:11.54 bitrate=2682.2kbits/s speed=0.227x    frame=  346 fps=6.7 q=46.0 size=    3779kB time=00:00:11.79 bitrate=2625.4kbits/s speed=0.23x    frame=  354 fps=6.8 q=46.0 size=    3779kB time=00:00:12.12 bitrate=2553.3kbits/s speed=0.234x    frame=  362 fps=6.9 q=45.0 size=    3779kB time=00:00:12.45 bitrate=2485.0kbits/s speed=0.238x    frame=  369 fps=7.0 q=45.0 size=    3779kB time=00:00:12.75 bitrate=2428.1kbits/s speed=0.241x    frame=  375 fps=7.0 q=45.0 size=    3779kB time=00:00:13.00 bitrate=2381.4kbits/s speed=0.243x    frame=  384 fps=7.1 q=44.0 size=    3779kB time=00:00:13.37 bitrate=2314.7kbits/s speed=0.247x    frame=  392 fps=7.2 q=44.0 size=    3779kB time=00:00:13.70 bitrate=2258.4kbits/s speed=0.25x    frame=  400 fps=7.2 q=44.0 size=    3779kB time=00:00:14.04 bitrate=2204.7kbits/s speed=0.254x    frame=  407 fps=7.3 q=43.0 size=    3779kB time=00:00:14.33 bitrate=2160.0kbits/s speed=0.257x    frame=  415 fps=7.4 q=43.0 size=    3779kB time=00:00:14.66 bitrate=2110.8kbits/s speed=0.26x    frame=  423 fps=7.4 q=43.0 size=    4560kB time=00:00:15.00 bitrate=2490.1kbits/s speed=0.264x    frame=  428 fps=7.4 q=43.0 size=    4560kB time=00:00:15.20 bitrate=2456.1kbits/s speed=0.265x    frame=  434 fps=7.5 q=42.0 size=    4560kB time=00:00:15.45 bitrate=2416.3kbits/s speed=0.267x    frame=  440 fps=7.5 q=42.0 size=    4560kB time=00:00:15.70 bitrate=2377.9kbits/s speed=0.268x    frame=  448 fps=7.5 q=42.0 size=    4560kB time=00:00:16.04 bitrate=2328.4kbits/s speed=0.27x    frame=  455 fps=7.6 q=42.0 size=    4560kB time=00:00:16.33 bitrate=2286.9kbits/s speed=0.272x    frame=  461 fps=7.6 q=42.0 size=    4560kB time=00:00:16.58 bitrate=2252.4kbits/s speed=0.272x    frame=  467 fps=7.6 q=42.0 size=    4560kB time=00:00:16.83 bitrate=2219.0kbits/s speed=0.273x    frame=  475 fps=7.6 q=42.0 size=    4560kB time=00:00:17.16 bitrate=2175.8kbits/s speed=0.276x    frame=  484 fps=7.7 q=42.0 size=    5281kB time=00:00:17.54 bitrate=2465.9kbits/s speed=0.278x    frame=  492 fps=7.7 q=42.0 size=    5281kB time=00:00:17.87 bitrate=2419.9kbits/s speed=0.28x    frame=  500 fps=7.8 q=42.0 size=    5281kB time=00:00:18.20 bitrate=2375.7kbits/s speed=0.282x    frame=  500 fps=7.3 q=-1.0 Lsize=    6256kB time=00:00:20.70 bitrate=2474.6kbits/s speed=0.302x    
video:6251kB audio:0kB subtitle:0kB other streams:0kB global headers:0kB muxing overhead: 0.072032%
bench: utime=201.972s
bench: maxrss=1813652kB
[libx264 @ 0x3567120] frame I:8     Avg QP:37.42  size: 47283
[libx264 @ 0x3567120] frame P:269   Avg QP:42.60  size: 15822
[libx264 @ 0x3567120] frame B:223   Avg QP:41.76  size:  7920
[libx264 @ 0x3567120] consecutive B-frames: 37.0%  8.4%  6.6% 48.0%
[libx264 @ 0x3567120] mb I  I16..4: 35.8% 63.4%  0.7%
[libx264 @ 0x3567120] mb P  I16..4: 14.4% 23.2%  0.0%  P16..4:  9.6%  0.4%  0.3%  0.0%  0.0%    skip:52.1%
[libx264 @ 0x3567120] mb B  I16..4:  0.7%  0.8%  0.0%  B16..8: 19.5%  0.5%  0.0%  direct: 0.2%  skip:78.2%  L0:39.3% L1:60.1% BI: 0.6%
[libx264 @ 0x3567120] final ratefactor: 39.48
[libx264 @ 0x3567120] 8x8 transform intra:61.6% inter:94.6%
[libx264 @ 0x3567120] direct mvs  spatial:98.7% temporal:1.3%
[libx264 @ 0x3567120] coded y,uvDC,uvAC intra: 2.7% 14.3% 0.1% inter: 0.7% 1.1% 0.0%
[libx264 @ 0x3567120] i16 v,h,dc,p: 43% 35%  4% 18%
[libx264 @ 0x3567120] i8 v,h,dc,ddl,ddr,vr,hd,vl,hu: 11%  5% 79%  1%  1%  1%  1%  1%  1%
[libx264 @ 0x3567120] i4 v,h,dc,ddl,ddr,vr,hd,vl,hu: 13% 12% 10% 11% 15% 10% 12%  6% 11%
[libx264 @ 0x3567120] i8c dc,h,v,p: 94%  4%  2%  0%
[libx264 @ 0x3567120] Weighted P-Frames: Y:1.1% UV:0.7%
[libx264 @ 0x3567120] ref P L0: 57.9%  6.3% 19.5%  6.8%  6.5%  3.0%
[libx264 @ 0x3567120] ref B L0: 84.7%  9.9%  4.6%  0.8%
[libx264 @ 0x3567120] ref B L1: 97.1%  2.9%
[libx264 @ 0x3567120] kb/s:2457.84
